{"glyphs":{"0":{"ha":859,"x_min":0,"x_max":0,"o":"m 302 273 b 280 280 294 273 286 275 b 269 296 275 284 272 290 b 266 319 267 304 265 312 l 266 664 b 269 687 265 671 267 680 b 280 703 272 693 275 699 b 302 710 286 707 294 710 l 524 710 b 545 703 532 710 540 707 b 556 687 550 699 554 693 b 559 664 559 680 560 671 l 559 319 b 556 296 560 312 559 304 b 545 280 554 290 550 284 b 524 273 540 275 532 273 z m 299 983 b 69 888 198 983 121 951 b 0 664 23 833 0 758 l 0 319 b 69 94 0 225 23 150 b 299 0 121 31 198 0 l 526 0 b 756 94 627 0 704 31 b 825 319 802 150 825 225 l 825 664 b 756 888 825 758 802 833 b 526 983 704 951 627 983 z "},"1":{"ha":307,"x_min":0,"x_max":0,"o":"m 0 0 l 273 0 l 273 983 l 0 983 z "},"2":{"ha":711,"x_min":0,"x_max":0,"o":"m 444 406 l 534 496 l 559 522 l 584 549 b 628 604 602 568 616 587 b 672 737 657 646 672 691 b 604 909 672 804 649 861 b 439 983 558 958 503 983 l 14 983 l 14 710 l 361 710 l 328 676 l 298 647 b 264 614 286 635 275 624 b 136 484 203 552 160 509 l 111 458 l 86 432 b 43 378 68 412 54 395 b 0 245 14 336 0 292 b 1 0 0 158 1 76 l 677 0 l 677 273 l 311 273 l 355 317 z "},"3":{"ha":717,"x_min":0,"x_max":0,"o":"m 0 983 l 0 711 l 380 711 b 406 698 391 711 399 707 b 416 665 413 689 416 678 b 408 635 416 654 414 644 b 380 619 400 625 391 619 l 0 619 l 0 366 l 380 366 b 409 347 392 366 401 359 b 416 319 414 339 416 330 b 406 287 416 307 413 296 b 380 273 399 278 391 273 l 0 273 l 0 0 l 434 0 b 609 94 502 0 560 31 b 683 319 659 157 683 232 b 646 498 683 392 671 452 b 683 665 671 549 683 605 b 571 927 683 790 646 878 b 315 983 515 964 429 983 z "},"4":{"ha":741,"x_min":0,"x_max":0,"o":"m 433 621 l 273 621 l 273 983 l 0 983 l 0 348 l 433 348 l 433 0 l 707 0 l 707 983 l 433 983 z "},"5":{"ha":716,"x_min":0,"x_max":0,"o":"m 273 619 l 273 710 l 652 710 l 652 983 l 0 983 l 0 366 l 380 366 b 409 347 392 366 401 359 b 416 319 414 339 416 330 b 406 287 416 307 413 296 b 380 273 399 278 391 273 l 0 273 l 0 0 l 383 0 b 613 94 484 0 561 31 b 682 319 659 150 682 225 b 634 496 682 390 666 449 b 528 585 608 534 573 564 b 373 619 476 609 425 621 z "},"6":{"ha":842,"x_min":0,"x_max":0,"o":"m 302 273 b 269 296 286 273 275 281 b 266 319 267 304 265 312 l 266 364 l 309 364 l 503 364 l 513 364 b 534 347 522 362 529 356 b 542 319 539 339 542 330 b 531 287 542 307 538 296 b 505 273 524 278 515 273 z m 503 619 l 500 619 l 498 619 l 266 619 l 266 664 b 269 687 265 671 267 680 b 280 703 272 693 275 699 b 302 710 286 707 294 710 l 735 710 l 735 983 l 299 983 b 69 888 198 983 121 951 b 0 664 23 833 0 758 l 0 332 l 0 319 b 69 94 0 225 23 150 b 299 0 121 31 198 0 l 509 0 b 739 94 610 0 686 31 b 808 319 785 150 808 225 b 762 492 808 388 793 445 b 628 595 732 538 687 573 b 561 613 607 603 585 609 b 534 617 552 615 543 616 b 513 618 526 618 519 618 b 503 619 509 619 507 619 z "},"7":{"ha":716,"x_min":0,"x_max":0,"o":"m 0 710 l 304 710 l 96 0 l 382 0 l 682 983 l 0 983 z "},"8":{"ha":842,"x_min":0,"x_max":0,"o":"m 302 273 b 277 287 292 273 283 278 b 266 319 269 296 266 307 b 273 347 266 330 269 339 b 295 364 279 356 286 362 l 304 364 l 503 364 l 513 364 b 534 347 522 362 528 356 b 542 319 539 339 542 330 b 531 287 542 307 538 296 b 505 273 524 278 515 273 z m 302 710 l 505 710 b 531 696 515 709 524 705 b 542 664 538 687 542 677 b 534 635 542 654 539 644 b 513 618 528 627 522 621 b 503 619 509 619 506 619 l 500 619 l 498 619 l 309 619 l 308 619 l 304 619 b 295 618 302 619 298 619 b 273 635 286 621 279 627 b 266 664 269 644 266 654 b 277 696 266 677 269 687 b 302 710 283 705 292 709 z m 299 983 b 69 888 198 983 121 951 b 0 664 23 833 0 758 b 45 492 0 595 15 538 b 0 319 15 445 0 388 b 69 94 0 225 23 150 b 299 0 121 31 198 0 l 509 0 b 739 94 610 0 686 31 b 808 319 785 150 808 225 b 762 492 808 388 793 445 b 808 664 793 538 808 595 b 739 888 808 758 785 833 b 509 983 686 951 610 983 z "},"9":{"ha":842,"x_min":0,"x_max":0,"o":"m 505 710 b 538 687 522 710 533 703 b 542 664 541 680 543 671 l 542 618 b 498 619 513 619 499 619 l 304 619 b 294 618 301 619 298 619 b 273 635 286 621 279 627 b 266 664 269 644 266 654 b 277 696 266 677 269 687 b 302 710 283 705 292 709 z m 304 364 l 308 364 l 309 364 l 542 364 l 542 319 b 538 296 543 312 541 304 b 528 280 536 290 532 284 b 505 273 522 275 514 273 l 73 273 l 73 0 l 509 0 b 739 94 610 0 686 31 b 808 319 785 150 808 225 l 808 651 l 808 664 b 739 888 808 758 785 833 b 509 983 686 951 610 983 l 299 983 b 69 888 198 983 121 951 b 0 664 23 833 0 758 b 45 492 0 595 15 538 b 180 388 76 445 121 410 b 247 370 201 380 223 374 b 274 366 256 368 265 367 b 294 364 281 366 288 365 z "},"\u0000":{"ha":0,"x_min":0,"x_max":0,"o":""},"\u001d":{"ha":0,"x_min":0,"x_max":0,"o":""}," ":{"ha":248,"x_min":0,"x_max":0,"o":""}," ":{"ha":248,"x_min":0,"x_max":0,"o":""},"!":{"ha":307,"x_min":0,"x_max":0,"o":"m 0 298 l 273 298 l 273 983 l 0 983 z m 0 0 l 273 0 l 273 245 l 0 245 z "},"\"":{"ha":618,"x_min":0,"x_max":0,"o":"m 311 624 l 584 624 l 584 983 l 311 983 z m 0 624 l 273 624 l 273 983 l 0 983 z "},"#":{"ha":539,"x_min":0,"x_max":0,"o":"m 0 713 l 0 578 l 31 578 l 16 492 l 173 492 l 188 578 l 244 578 l 229 492 l 386 492 l 401 578 l 475 578 l 475 713 l 425 713 l 435 765 l 505 765 l 505 900 l 459 900 l 474 983 l 317 983 l 302 900 l 246 900 l 261 983 l 104 983 l 89 900 l 31 900 l 31 765 l 64 765 l 56 713 z m 277 765 l 269 713 l 212 713 l 222 765 z "},"$":{"ha":372,"x_min":0,"x_max":0,"o":"m 119 939 b 37 902 87 939 60 926 b 3 816 14 878 3 849 b 24 749 3 793 10 770 l 183 584 l 0 584 l 0 447 l 120 447 l 120 400 l 219 400 l 219 447 l 222 447 b 304 484 254 447 281 459 b 338 570 327 508 338 536 b 317 636 338 593 332 615 b 175 785 312 644 264 694 l 158 802 l 332 802 l 332 939 l 219 939 l 219 982 l 120 982 l 120 939 z "},"%":{"ha":611,"x_min":0,"x_max":0,"o":"m 62 492 l 219 492 l 514 983 l 357 983 z m 476 604 b 478 604 477 604 477 604 l 479 606 l 479 608 l 479 630 l 479 632 b 478 634 479 633 479 633 b 476 635 477 635 477 635 l 453 635 b 451 634 452 635 452 635 b 450 632 450 633 450 633 l 450 630 l 450 608 l 450 606 b 451 604 450 605 450 604 b 453 604 452 604 452 604 z m 496 746 b 558 720 524 746 544 737 b 577 659 571 705 577 684 l 577 578 b 558 517 577 553 571 532 b 496 492 544 500 524 492 l 433 492 b 371 517 406 492 385 500 b 352 578 358 532 352 553 l 352 659 b 371 720 352 685 358 705 b 433 746 385 737 406 746 z m 124 840 b 126 841 125 840 125 840 l 127 842 l 127 845 l 127 867 l 127 869 b 126 871 127 869 127 870 b 124 871 125 871 125 871 l 101 871 b 99 871 100 871 100 871 b 98 869 98 870 98 869 l 98 867 l 98 845 l 98 842 b 99 841 98 842 98 841 b 101 840 100 840 100 840 z m 144 983 b 206 957 172 983 192 974 b 225 896 219 941 225 921 l 225 815 b 206 754 225 789 219 769 b 144 728 192 737 172 728 l 81 728 b 19 754 54 728 33 737 b 0 815 6 769 0 789 l 0 896 b 19 957 0 922 6 942 b 81 983 33 974 54 983 z "},"&":{"ha":865,"x_min":0,"x_max":0,"o":"m 302 272 b 277 286 292 272 283 277 b 266 318 269 294 266 305 b 275 348 266 330 269 339 b 302 364 282 358 291 363 l 565 364 l 565 272 z m 565 710 l 565 617 l 302 617 b 273 635 290 618 281 624 b 266 664 269 644 266 654 b 277 696 266 677 269 687 b 302 710 283 705 292 709 l 471 710 l 471 983 l 248 983 b 73 888 180 983 122 951 b 0 664 24 825 0 751 b 37 484 0 591 12 531 b 0 318 12 433 0 378 b 111 56 0 193 37 106 b 368 0 168 19 253 0 l 831 0 l 831 710 z "},"'":{"ha":307,"x_min":0,"x_max":0,"o":"m 0 623 l 273 623 l 273 982 l 0 982 z "},"(":{"ha":373,"x_min":0,"x_max":0,"o":"m 339 273 l 302 273 b 280 280 294 273 286 275 b 269 296 275 284 272 290 b 266 319 267 304 265 312 l 266 664 b 269 687 265 671 267 680 b 280 703 272 693 275 699 b 302 710 286 707 294 710 l 339 710 l 339 983 l 299 983 b 69 888 198 983 121 951 b 0 664 23 833 0 758 l 0 319 b 69 94 0 225 23 150 b 299 0 121 31 198 0 l 339 0 z "},")":{"ha":373,"x_min":0,"x_max":0,"o":"m 0 0 l 40 0 b 270 94 141 0 218 31 b 339 319 316 150 339 225 l 339 664 b 270 888 339 758 316 833 b 40 983 218 951 141 983 l 0 983 l 0 710 l 37 710 b 59 703 45 710 53 707 b 70 687 64 699 67 693 b 73 664 73 680 74 671 l 73 319 b 70 296 74 312 73 304 b 59 280 67 290 64 284 b 37 273 53 275 45 273 l 0 273 z "},"*":{"ha":421,"x_min":0,"x_max":0,"o":"m 272 644 l 341 713 l 313 741 l 387 741 l 387 839 l 312 839 l 341 868 l 272 937 l 243 909 l 243 982 l 146 982 l 146 909 l 117 937 l 47 868 l 77 839 l 0 839 l 0 741 l 75 741 l 46 711 l 115 642 l 146 673 l 146 597 l 243 597 l 243 672 z "},"+":{"ha":645,"x_min":0,"x_max":0,"o":"m 169 186 l 442 186 l 442 355 l 611 355 l 611 628 l 442 628 l 442 797 l 169 797 l 169 628 l 0 628 l 0 355 l 169 355 z "},",":{"ha":416,"x_min":0,"x_max":0,"o":"m 0 0 l 287 0 l 382 245 l 95 245 z "},"-":{"ha":414,"x_min":0,"x_max":0,"o":"m 0 355 l 380 355 l 380 628 l 0 628 z "},"­":{"ha":414,"x_min":0,"x_max":0,"o":"m 0 355 l 380 355 l 380 628 l 0 628 z "},".":{"ha":307,"x_min":0,"x_max":0,"o":"m 0 0 l 273 0 l 273 245 l 0 245 z "},"/":{"ha":524,"x_min":0,"x_max":0,"o":"m 0 0 l 314 0 l 490 983 l 176 983 z "},":":{"ha":307,"x_min":0,"x_max":0,"o":"m 0 0 l 273 0 l 273 245 l 0 245 z m 0 736 l 273 736 l 273 981 l 0 981 z "},";":{"ha":416,"x_min":0,"x_max":0,"o":"m 109 736 l 382 736 l 382 981 l 109 981 z m 0 0 l 287 0 l 382 245 l 95 245 z "},";":{"ha":416,"x_min":0,"x_max":0,"o":"m 109 736 l 382 736 l 382 981 l 109 981 z m 0 0 l 287 0 l 382 245 l 95 245 z "},"<":{"ha":638,"x_min":0,"x_max":0,"o":"m 0 340 l 604 0 l 604 301 l 268 491 l 604 681 l 604 981 l 0 644 z "},"=":{"ha":627,"x_min":0,"x_max":0,"o":"m 0 185 l 593 185 l 593 458 l 0 458 z m 0 524 l 593 524 l 593 798 l 0 798 z "},">":{"ha":638,"x_min":0,"x_max":0,"o":"m 604 644 l 0 981 l 0 681 l 336 491 l 0 301 l 0 0 l 604 340 z "},"?":{"ha":716,"x_min":0,"x_max":0,"o":"m 0 983 l 0 710 l 380 710 b 406 696 391 709 399 705 b 416 664 413 687 416 677 b 409 635 416 654 414 644 b 380 617 401 624 392 618 l 0 617 l 0 298 l 273 298 l 273 364 l 373 364 b 528 398 425 363 476 374 b 682 664 631 447 682 536 b 613 888 682 758 659 833 b 383 983 561 951 484 983 z m 0 0 l 273 0 l 273 245 l 0 245 z "},"@":{"ha":1074,"x_min":0,"x_max":0,"o":"m 616 273 b 591 287 606 273 597 278 b 580 319 583 296 580 307 b 587 347 580 330 583 339 b 608 364 593 356 600 362 l 774 364 l 774 319 b 771 296 775 312 774 304 b 738 273 766 281 755 273 z m 299 983 b 69 888 198 983 121 951 b 0 664 23 833 0 758 l 0 1 l 266 1 l 266 664 b 269 687 265 671 267 680 b 280 703 272 693 275 699 b 302 710 286 707 294 710 l 738 710 b 760 703 747 710 754 707 b 771 687 765 699 768 693 b 774 664 774 680 775 671 l 774 619 l 618 619 b 608 618 615 619 612 619 b 588 617 602 618 595 618 b 561 613 579 616 570 615 b 494 595 537 609 515 603 b 359 492 435 573 390 538 b 314 319 329 445 314 388 b 383 94 314 225 337 150 b 613 0 435 31 512 0 l 741 0 b 971 94 842 0 919 31 b 1040 319 1017 150 1040 225 l 1040 664 b 971 888 1040 758 1017 833 b 741 983 919 951 842 983 z "},"A":{"ha":1128,"x_min":0,"x_max":0,"o":"m 461 353 l 554 599 l 647 353 z m 389 983 l 0 0 l 328 0 l 364 97 l 743 97 l 781 0 l 1095 0 l 719 983 z "},"B":{"ha":916,"x_min":0,"x_max":0,"o":"m 539 619 l 274 619 l 274 711 l 539 711 b 568 698 551 711 560 707 b 580 665 576 689 580 678 b 570 635 580 654 576 644 b 539 619 562 625 551 619 z m 274 273 l 274 366 l 539 366 b 571 347 552 366 563 359 b 580 319 577 339 580 330 b 568 287 580 307 576 296 b 539 273 560 278 551 273 z m 0 983 l 0 0 l 600 0 b 799 95 677 1 744 33 b 882 319 854 157 882 232 b 840 498 882 392 867 452 b 882 665 867 549 882 605 b 755 927 882 790 840 878 b 464 983 692 964 595 983 z "},"C":{"ha":907,"x_min":0,"x_max":0,"o":"m 873 983 l 492 983 b 144 839 355 983 239 935 b 0 492 48 743 0 627 b 144 144 0 355 48 239 b 492 0 239 48 355 0 l 873 0 l 873 273 l 492 273 b 337 337 431 273 380 294 b 273 492 294 380 273 431 b 336 646 273 552 294 604 b 492 710 378 689 430 710 l 873 710 z "},"D":{"ha":956,"x_min":0,"x_max":0,"o":"m 273 273 l 273 710 l 430 710 b 586 646 492 710 543 689 b 649 492 628 604 649 552 b 585 337 649 431 627 380 b 430 273 542 294 490 273 z m 0 983 l 0 0 l 430 0 b 777 144 566 0 682 48 b 922 492 873 239 922 355 b 777 839 922 627 873 743 b 430 983 682 935 566 983 z "},"E":{"ha":746,"x_min":0,"x_max":0,"o":"m 0 983 l 0 0 l 712 0 l 712 273 l 273 273 l 273 355 l 712 355 l 712 628 l 273 628 l 273 710 l 712 710 l 712 983 z "},"F":{"ha":746,"x_min":0,"x_max":0,"o":"m 0 983 l 0 0 l 273 0 l 273 355 l 644 355 l 644 628 l 273 628 l 273 710 l 712 710 l 712 983 z "},"G":{"ha":912,"x_min":0,"x_max":0,"o":"m 605 273 l 492 273 b 337 337 431 273 380 294 b 273 492 294 380 273 431 b 336 646 273 552 294 604 b 492 710 378 689 430 710 l 873 710 l 873 983 l 492 983 b 144 839 355 983 239 935 b 0 492 48 743 0 627 b 144 144 0 355 48 239 b 492 0 239 48 355 0 l 878 0 l 878 482 l 605 482 z "},"H":{"ha":872,"x_min":0,"x_max":0,"o":"m 566 628 l 273 628 l 273 983 l 0 983 l 0 0 l 273 0 l 273 355 l 566 355 l 566 0 l 838 0 l 838 983 l 566 983 z "},"I":{"ha":307,"x_min":0,"x_max":0,"o":"m 0 0 l 273 0 l 273 983 l 0 983 z "},"J":{"ha":703,"x_min":0,"x_max":0,"o":"m 396 505 b 283 303 396 410 358 342 b 205 277 259 291 233 282 b 180 273 197 275 188 274 l 172 273 l 170 273 l 170 273 l 0 273 l 0 0 l 162 0 l 170 0 l 182 0 b 214 2 192 1 203 1 b 304 17 244 5 275 9 b 527 136 393 39 467 79 b 622 272 567 174 598 220 b 669 505 653 340 669 418 l 669 983 l 396 983 z "},"K":{"ha":943,"x_min":0,"x_max":0,"o":"m 556 983 l 273 599 l 273 983 l 0 983 l 0 0 l 273 0 l 273 250 l 492 0 l 1206 0 l 1206 273 l 624 273 l 491 427 l 909 983 z "},"L":{"ha":780,"x_min":0,"x_max":0,"o":"m 273 983 l 0 983 l 0 0 l 746 0 l 746 273 l 273 273 z "},"M":{"ha":1109,"x_min":0,"x_max":0,"o":"m 537 538 l 307 983 l 0 983 l 0 0 l 273 0 l 273 431 l 537 4 l 802 431 l 802 0 l 1075 0 l 1075 983 l 734 983 z "},"N":{"ha":943,"x_min":0,"x_max":0,"o":"m 636 472 l 272 983 l 0 983 l 0 0 l 273 0 l 273 511 l 636 0 l 909 0 l 909 983 l 636 983 z "},"O":{"ha":1092,"x_min":0,"x_max":0,"o":"m 492 273 b 337 337 431 273 380 294 b 273 492 294 380 273 431 b 336 646 273 552 294 604 b 492 710 378 689 430 710 l 566 710 b 722 646 628 710 680 689 b 785 492 764 604 785 552 b 721 337 785 431 764 380 b 566 273 678 294 627 273 z m 492 983 b 144 839 355 983 239 935 b 0 492 48 743 0 627 b 144 144 0 355 48 239 b 492 0 239 48 355 0 l 566 0 b 914 144 703 0 819 48 b 1058 492 1010 239 1058 355 b 914 839 1058 627 1010 743 b 566 983 819 935 703 983 z "},"P":{"ha":860,"x_min":0,"x_max":0,"o":"m 0 983 l 0 0 l 273 0 l 273 252 l 464 252 b 720 359 564 252 650 288 b 826 617 791 431 826 517 b 720 874 826 718 791 803 b 464 983 650 945 564 982 z m 273 536 l 273 670 l 439 670 b 487 650 458 670 474 663 b 507 603 500 637 507 621 b 487 555 507 585 500 568 b 439 536 474 543 458 536 z "},"Q":{"ha":1092,"x_min":0,"x_max":0,"o":"m 497 273 l 492 273 b 337 337 431 273 380 294 b 273 492 294 380 273 431 b 336 646 273 552 294 604 b 492 710 378 689 430 710 l 566 710 b 722 646 628 710 680 689 b 785 492 764 604 785 552 b 760 387 785 453 777 418 l 648 517 l 442 337 z m 781 -56 l 986 123 l 943 174 b 1058 492 1019 264 1058 370 b 914 839 1058 627 1010 743 b 566 983 819 935 703 983 l 492 983 b 144 839 355 983 239 935 b 0 492 48 743 0 627 b 144 144 0 355 48 239 b 492 0 239 48 355 0 l 566 0 b 714 21 618 0 667 7 z "},"R":{"ha":860,"x_min":0,"x_max":0,"o":"m 720 874 b 464 983 650 945 564 982 l 0 983 l 0 0 l 273 0 l 273 176 l 435 0 l 1145 0 l 1145 273 l 610 273 b 766 416 674 309 726 357 b 826 617 806 477 826 544 b 720 874 826 718 791 803 z m 273 536 l 273 670 l 439 670 b 487 650 458 670 474 663 b 507 603 500 637 507 621 b 487 555 507 585 500 568 b 439 536 474 543 458 536 z "},"S":{"ha":711,"x_min":0,"x_max":0,"o":"m 718 710 l 718 983 l 238 983 b 73 909 174 983 119 958 b 5 737 28 861 5 804 b 49 604 5 684 20 639 l 366 273 l -61 273 l -61 0 l 444 0 b 608 73 507 0 562 24 b 677 245 654 122 677 180 b 634 378 677 292 663 336 b 316 710 425 597 318 707 z "},"T":{"ha":812,"x_min":0,"x_max":0,"o":"m 0 983 l 0 710 l 252 710 l 252 0 l 526 0 l 526 710 l 778 710 l 778 983 z "},"U":{"ha":870,"x_min":0,"x_max":0,"o":"m 563 418 b 521 315 563 378 549 344 b 418 273 492 288 458 273 b 315 315 378 273 344 288 b 273 418 288 344 273 378 l 273 987 l 0 987 l 0 418 b 123 123 0 302 41 204 b 418 0 204 41 302 0 b 713 123 533 0 631 41 b 836 418 795 204 836 302 l 836 987 l 563 987 z "},"V":{"ha":1128,"x_min":0,"x_max":0,"o":"m 541 385 l 314 983 l 0 983 l 376 0 l 705 0 l 1095 983 l 767 983 z "},"W":{"ha":1208,"x_min":0,"x_max":0,"o":"m 784 621 l 701 983 l 460 983 l 376 621 l 294 983 l 0 983 l 225 0 l 494 0 l 583 366 l 633 0 l 935 0 l 1175 983 l 867 983 z "},"X":{"ha":991,"x_min":0,"x_max":0,"o":"m 957 983 l 611 983 l 479 769 l 346 983 l 0 983 l 3 977 l 306 492 l 3 5 l 0 0 l 346 0 l 479 214 l 611 0 l 957 0 l 954 5 l 651 492 l 954 977 z "},"Y":{"ha":1074,"x_min":0,"x_max":0,"o":"m 519 646 l 318 983 l 0 983 l 361 381 l 383 343 l 383 0 l 656 0 l 656 343 l 679 381 l 1040 983 l 722 983 z "},"Z":{"ha":814,"x_min":0,"x_max":0,"o":"m 0 710 l 422 710 l 0 267 l 0 0 l 781 0 l 781 273 l 358 273 l 781 716 l 781 983 l 0 983 z "},"[":{"ha":389,"x_min":0,"x_max":0,"o":"m 355 273 l 273 273 l 273 710 l 355 710 l 355 983 l 0 983 l 0 0 l 355 0 z "},"\\":{"ha":524,"x_min":0,"x_max":0,"o":"m 314 983 l 0 983 l 176 0 l 490 0 z "},"]":{"ha":389,"x_min":0,"x_max":0,"o":"m 0 0 l 355 0 l 355 983 l 0 983 l 0 710 l 81 710 l 81 273 l 0 273 z "},"^":{"ha":825,"x_min":0,"x_max":0,"o":"m 320 390 l 399 599 l 479 390 l 791 390 l 564 983 l 235 983 l 0 390 z "},"_":{"ha":608,"x_min":0,"x_max":0,"o":"m 0 0 l 574 0 l 574 273 l 0 273 z "},"`":{"ha":34,"x_min":0,"x_max":0,"o":""},"a":{"ha":1128,"x_min":0,"x_max":0,"o":"m 461 353 l 554 599 l 647 353 z m 389 983 l 0 0 l 328 0 l 364 97 l 743 97 l 781 0 l 1095 0 l 719 983 z "},"b":{"ha":916,"x_min":0,"x_max":0,"o":"m 539 619 l 274 619 l 274 711 l 539 711 b 568 698 551 711 560 707 b 580 665 576 689 580 678 b 570 635 580 654 576 644 b 539 619 562 625 551 619 z m 274 273 l 274 366 l 539 366 b 571 347 552 366 563 359 b 580 319 577 339 580 330 b 568 287 580 307 576 296 b 539 273 560 278 551 273 z m 0 983 l 0 0 l 600 0 b 799 95 677 1 744 33 b 882 319 854 157 882 232 b 840 498 882 392 867 452 b 882 665 867 549 882 605 b 755 927 882 790 840 878 b 464 983 692 964 595 983 z "},"c":{"ha":907,"x_min":0,"x_max":0,"o":"m 873 983 l 492 983 b 144 839 355 983 239 935 b 0 492 48 743 0 627 b 144 144 0 355 48 239 b 492 0 239 48 355 0 l 873 0 l 873 273 l 492 273 b 337 337 431 273 380 294 b 273 492 294 380 273 431 b 336 646 273 552 294 604 b 492 710 378 689 430 710 l 873 710 z "},"d":{"ha":956,"x_min":0,"x_max":0,"o":"m 273 273 l 273 710 l 430 710 b 586 646 492 710 543 689 b 649 492 628 604 649 552 b 585 337 649 431 627 380 b 430 273 542 294 490 273 z m 0 983 l 0 0 l 430 0 b 777 144 566 0 682 48 b 922 492 873 239 922 355 b 777 839 922 627 873 743 b 430 983 682 935 566 983 z "},"e":{"ha":746,"x_min":0,"x_max":0,"o":"m 0 983 l 0 0 l 712 0 l 712 273 l 273 273 l 273 355 l 712 355 l 712 628 l 273 628 l 273 710 l 712 710 l 712 983 z "},"f":{"ha":746,"x_min":0,"x_max":0,"o":"m 0 983 l 0 0 l 273 0 l 273 355 l 644 355 l 644 628 l 273 628 l 273 710 l 712 710 l 712 983 z "},"g":{"ha":912,"x_min":0,"x_max":0,"o":"m 605 273 l 492 273 b 337 337 431 273 380 294 b 273 492 294 380 273 431 b 336 646 273 552 294 604 b 492 710 378 689 430 710 l 873 710 l 873 983 l 492 983 b 144 839 355 983 239 935 b 0 492 48 743 0 627 b 144 144 0 355 48 239 b 492 0 239 48 355 0 l 878 0 l 878 482 l 605 482 z "},"h":{"ha":872,"x_min":0,"x_max":0,"o":"m 566 628 l 273 628 l 273 983 l 0 983 l 0 0 l 273 0 l 273 355 l 566 355 l 566 0 l 838 0 l 838 983 l 566 983 z "},"i":{"ha":307,"x_min":0,"x_max":0,"o":"m 0 0 l 273 0 l 273 983 l 0 983 z "},"j":{"ha":703,"x_min":0,"x_max":0,"o":"m 396 505 b 283 303 396 410 358 342 b 205 277 259 291 233 282 b 180 273 197 275 188 274 l 172 273 l 170 273 l 170 273 l 0 273 l 0 0 l 162 0 l 170 0 l 182 0 b 214 2 192 1 203 1 b 304 17 244 5 275 9 b 527 136 393 39 467 79 b 622 272 567 174 598 220 b 669 505 653 340 669 418 l 669 983 l 396 983 z "},"k":{"ha":943,"x_min":0,"x_max":0,"o":"m 556 983 l 273 599 l 273 983 l 0 983 l 0 0 l 273 0 l 273 250 b 313 191 285 229 298 210 b 342 157 322 180 332 168 b 754 0 441 52 579 0 l 909 0 l 909 273 l 754 273 b 541 345 659 273 587 297 b 491 427 520 367 503 394 l 909 983 z "},"l":{"ha":780,"x_min":0,"x_max":0,"o":"m 273 983 l 0 983 l 0 0 l 746 0 l 746 273 l 273 273 z "},"m":{"ha":1109,"x_min":0,"x_max":0,"o":"m 537 538 l 307 983 l 0 983 l 0 0 l 273 0 l 273 431 l 537 4 l 802 431 l 802 0 l 1075 0 l 1075 983 l 734 983 z "},"n":{"ha":943,"x_min":0,"x_max":0,"o":"m 636 472 l 272 983 l 0 983 l 0 0 l 273 0 l 273 511 l 636 0 l 909 0 l 909 983 l 636 983 z "},"o":{"ha":1092,"x_min":0,"x_max":0,"o":"m 492 273 b 337 337 431 273 380 294 b 273 492 294 380 273 431 b 336 646 273 552 294 604 b 492 710 378 689 430 710 l 566 710 b 722 646 628 710 680 689 b 785 492 764 604 785 552 b 721 337 785 431 764 380 b 566 273 678 294 627 273 z m 492 983 b 144 839 355 983 239 935 b 0 492 48 743 0 627 b 144 144 0 355 48 239 b 492 0 239 48 355 0 l 566 0 b 914 144 703 0 819 48 b 1058 492 1010 239 1058 355 b 914 839 1058 627 1010 743 b 566 983 819 935 703 983 z "},"p":{"ha":860,"x_min":0,"x_max":0,"o":"m 0 983 l 0 0 l 273 0 l 273 252 l 464 252 b 720 359 564 252 650 288 b 826 617 791 431 826 517 b 720 874 826 718 791 803 b 464 983 650 945 564 982 z m 273 536 l 273 670 l 439 670 b 487 650 458 670 474 663 b 507 603 500 637 507 621 b 487 555 507 585 500 568 b 439 536 474 543 458 536 z "},"q":{"ha":1092,"x_min":0,"x_max":0,"o":"m 497 273 l 492 273 b 337 337 431 273 380 294 b 273 492 294 380 273 431 b 336 646 273 552 294 604 b 492 710 378 689 430 710 l 566 710 b 722 646 628 710 680 689 b 785 492 764 604 785 552 b 760 387 785 453 777 418 l 648 517 l 442 337 z m 781 -56 l 986 123 l 943 174 b 1058 492 1019 264 1058 370 b 914 839 1058 627 1010 743 b 566 983 819 935 703 983 l 492 983 b 144 839 355 983 239 935 b 0 492 48 743 0 627 b 144 144 0 355 48 239 b 492 0 239 48 355 0 l 566 0 b 714 21 618 0 667 7 z "},"r":{"ha":860,"x_min":0,"x_max":0,"o":"m 720 874 b 464 983 650 945 564 982 l 0 983 l 0 0 l 273 0 l 273 176 b 292 155 279 168 286 161 b 724 0 387 52 532 0 l 806 0 l 806 273 l 724 273 b 610 283 681 273 643 277 b 766 416 674 313 726 357 b 826 617 806 477 826 544 b 720 874 826 718 791 803 z m 273 536 l 273 670 l 439 670 b 487 650 458 670 474 663 b 507 603 500 637 507 621 b 487 555 507 585 500 568 b 439 536 474 543 458 536 z "},"s":{"ha":711,"x_min":0,"x_max":0,"o":"m 663 710 l 663 983 l 238 983 b 73 909 174 983 119 958 b 5 737 28 861 5 804 b 49 604 5 684 20 639 l 366 273 l 0 273 l 0 0 l 444 0 b 608 73 507 0 562 24 b 677 245 654 122 677 180 b 634 378 677 292 663 336 b 316 710 425 597 318 707 z "},"t":{"ha":812,"x_min":0,"x_max":0,"o":"m 0 983 l 0 710 l 252 710 l 252 0 l 526 0 l 526 710 l 778 710 l 778 983 z "},"u":{"ha":870,"x_min":0,"x_max":0,"o":"m 563 418 b 521 315 563 378 549 344 b 418 273 492 288 458 273 b 315 315 378 273 344 288 b 273 418 288 344 273 378 l 273 987 l 0 987 l 0 418 b 123 123 0 302 41 204 b 418 0 204 41 302 0 b 713 123 533 0 631 41 b 836 418 795 204 836 302 l 836 987 l 563 987 z "},"v":{"ha":1128,"x_min":0,"x_max":0,"o":"m 541 385 l 314 983 l 0 983 l 376 0 l 705 0 l 1095 983 l 767 983 z "},"w":{"ha":1208,"x_min":0,"x_max":0,"o":"m 784 621 l 701 983 l 460 983 l 376 621 l 294 983 l 0 983 l 225 0 l 494 0 l 583 366 l 633 0 l 935 0 l 1175 983 l 867 983 z "},"x":{"ha":991,"x_min":0,"x_max":0,"o":"m 957 983 l 611 983 l 479 769 l 346 983 l 0 983 l 3 977 l 306 492 l 3 5 l 0 0 l 346 0 l 479 214 l 611 0 l 957 0 l 954 5 l 651 492 l 954 977 z "},"y":{"ha":1074,"x_min":0,"x_max":0,"o":"m 519 646 l 318 983 l 0 983 l 361 381 l 383 343 l 383 0 l 656 0 l 656 343 l 679 381 l 1040 983 l 722 983 z "},"z":{"ha":814,"x_min":0,"x_max":0,"o":"m 0 710 l 422 710 l 0 267 l 0 0 l 781 0 l 781 273 l 358 273 l 781 716 l 781 983 l 0 983 z "},"{":{"ha":34,"x_min":0,"x_max":0,"o":""},"|":{"ha":307,"x_min":0,"x_max":0,"o":"m 0 0 l 273 0 l 273 983 l 0 983 z "},"}":{"ha":34,"x_min":0,"x_max":0,"o":""},"~":{"ha":34,"x_min":0,"x_max":0,"o":""},"¡":{"ha":34,"x_min":0,"x_max":0,"o":""},"¢":{"ha":34,"x_min":0,"x_max":0,"o":""},"£":{"ha":376,"x_min":0,"x_max":0,"o":"m 24 492 l 342 492 l 342 629 l 161 629 l 161 665 l 234 665 l 234 753 l 161 753 l 161 814 b 168 830 161 820 163 825 b 184 838 172 835 178 838 b 200 830 190 838 195 835 b 207 814 205 825 207 820 l 207 791 l 342 791 l 342 825 b 296 937 342 869 327 907 b 184 983 265 968 228 983 b 71 937 140 983 102 968 b 24 825 40 907 24 869 l 24 753 l 0 753 l 0 665 l 24 665 z "},"¤":{"ha":34,"x_min":0,"x_max":0,"o":""},"¥":{"ha":34,"x_min":0,"x_max":0,"o":""},"¦":{"ha":34,"x_min":0,"x_max":0,"o":""},"§":{"ha":34,"x_min":0,"x_max":0,"o":""},"¨":{"ha":34,"x_min":0,"x_max":0,"o":""},"©":{"ha":34,"x_min":0,"x_max":0,"o":""},"ª":{"ha":34,"x_min":0,"x_max":0,"o":""},"«":{"ha":34,"x_min":0,"x_max":0,"o":""},"¬":{"ha":34,"x_min":0,"x_max":0,"o":""},"®":{"ha":34,"x_min":0,"x_max":0,"o":""},"¯":{"ha":34,"x_min":0,"x_max":0,"o":""},"°":{"ha":34,"x_min":0,"x_max":0,"o":""},"±":{"ha":34,"x_min":0,"x_max":0,"o":""},"²":{"ha":34,"x_min":0,"x_max":0,"o":""},"³":{"ha":34,"x_min":0,"x_max":0,"o":""},"´":{"ha":34,"x_min":0,"x_max":0,"o":""},"µ":{"ha":34,"x_min":0,"x_max":0,"o":""},"¶":{"ha":34,"x_min":0,"x_max":0,"o":""},"·":{"ha":34,"x_min":0,"x_max":0,"o":""},"∙":{"ha":34,"x_min":0,"x_max":0,"o":""},"¸":{"ha":34,"x_min":0,"x_max":0,"o":""},"¹":{"ha":34,"x_min":0,"x_max":0,"o":""},"º":{"ha":34,"x_min":0,"x_max":0,"o":""},"»":{"ha":34,"x_min":0,"x_max":0,"o":""},"¼":{"ha":34,"x_min":0,"x_max":0,"o":""},"½":{"ha":34,"x_min":0,"x_max":0,"o":""},"¾":{"ha":34,"x_min":0,"x_max":0,"o":""},"¿":{"ha":34,"x_min":0,"x_max":0,"o":""},"À":{"ha":34,"x_min":0,"x_max":0,"o":""},"Á":{"ha":34,"x_min":0,"x_max":0,"o":""},"Â":{"ha":34,"x_min":0,"x_max":0,"o":""},"Ã":{"ha":34,"x_min":0,"x_max":0,"o":""},"Ä":{"ha":34,"x_min":0,"x_max":0,"o":""},"Å":{"ha":34,"x_min":0,"x_max":0,"o":""},"Æ":{"ha":34,"x_min":0,"x_max":0,"o":""},"Ç":{"ha":34,"x_min":0,"x_max":0,"o":""},"È":{"ha":34,"x_min":0,"x_max":0,"o":""},"É":{"ha":34,"x_min":0,"x_max":0,"o":""},"Ê":{"ha":34,"x_min":0,"x_max":0,"o":""},"Ë":{"ha":34,"x_min":0,"x_max":0,"o":""},"Ì":{"ha":34,"x_min":0,"x_max":0,"o":""},"Í":{"ha":34,"x_min":0,"x_max":0,"o":""},"Î":{"ha":34,"x_min":0,"x_max":0,"o":""},"Ï":{"ha":34,"x_min":0,"x_max":0,"o":""},"Ð":{"ha":34,"x_min":0,"x_max":0,"o":""},"Ñ":{"ha":34,"x_min":0,"x_max":0,"o":""},"Ò":{"ha":34,"x_min":0,"x_max":0,"o":""},"Ó":{"ha":34,"x_min":0,"x_max":0,"o":""},"Ô":{"ha":34,"x_min":0,"x_max":0,"o":""},"Õ":{"ha":34,"x_min":0,"x_max":0,"o":""},"Ö":{"ha":34,"x_min":0,"x_max":0,"o":""},"×":{"ha":34,"x_min":0,"x_max":0,"o":""},"Ø":{"ha":34,"x_min":0,"x_max":0,"o":""},"Ù":{"ha":34,"x_min":0,"x_max":0,"o":""},"Ú":{"ha":34,"x_min":0,"x_max":0,"o":""},"Û":{"ha":34,"x_min":0,"x_max":0,"o":""},"Ü":{"ha":34,"x_min":0,"x_max":0,"o":""},"Ý":{"ha":34,"x_min":0,"x_max":0,"o":""},"Þ":{"ha":34,"x_min":0,"x_max":0,"o":""},"ß":{"ha":899,"x_min":0,"x_max":0,"o":"m 753 927 b 496 983 696 964 611 983 l 299 983 b 69 888 198 983 121 951 b 0 664 23 833 0 758 l 0 0 l 266 0 l 266 664 b 274 687 266 671 269 680 b 292 703 279 694 285 700 b 330 711 302 708 315 711 l 562 711 b 588 697 572 711 581 706 b 599 665 595 688 599 678 b 589 635 599 654 595 644 b 562 619 582 625 573 619 l 372 619 l 372 366 l 562 366 b 591 347 574 366 583 359 b 599 319 596 339 599 330 b 588 287 599 307 595 296 b 562 273 581 278 572 273 l 372 273 l 372 0 l 616 0 b 791 94 684 0 743 31 b 865 319 840 157 865 232 b 827 498 865 392 852 452 b 865 665 852 549 865 605 b 753 927 865 790 827 878 z "},"à":{"ha":34,"x_min":0,"x_max":0,"o":""},"á":{"ha":34,"x_min":0,"x_max":0,"o":""},"â":{"ha":34,"x_min":0,"x_max":0,"o":""},"ã":{"ha":34,"x_min":0,"x_max":0,"o":""},"ä":{"ha":34,"x_min":0,"x_max":0,"o":""},"å":{"ha":34,"x_min":0,"x_max":0,"o":""},"æ":{"ha":34,"x_min":0,"x_max":0,"o":""},"ç":{"ha":34,"x_min":0,"x_max":0,"o":""},"è":{"ha":34,"x_min":0,"x_max":0,"o":""},"é":{"ha":34,"x_min":0,"x_max":0,"o":""},"ê":{"ha":34,"x_min":0,"x_max":0,"o":""},"ë":{"ha":34,"x_min":0,"x_max":0,"o":""},"ì":{"ha":34,"x_min":0,"x_max":0,"o":""},"í":{"ha":34,"x_min":0,"x_max":0,"o":""},"î":{"ha":34,"x_min":0,"x_max":0,"o":""},"ï":{"ha":34,"x_min":0,"x_max":0,"o":""},"ð":{"ha":34,"x_min":0,"x_max":0,"o":""},"ñ":{"ha":34,"x_min":0,"x_max":0,"o":""},"ò":{"ha":34,"x_min":0,"x_max":0,"o":""},"ó":{"ha":34,"x_min":0,"x_max":0,"o":""},"ô":{"ha":34,"x_min":0,"x_max":0,"o":""},"õ":{"ha":34,"x_min":0,"x_max":0,"o":""},"ö":{"ha":34,"x_min":0,"x_max":0,"o":""},"÷":{"ha":34,"x_min":0,"x_max":0,"o":""},"ø":{"ha":34,"x_min":0,"x_max":0,"o":""},"ù":{"ha":34,"x_min":0,"x_max":0,"o":""},"ú":{"ha":34,"x_min":0,"x_max":0,"o":""},"û":{"ha":34,"x_min":0,"x_max":0,"o":""},"ü":{"ha":34,"x_min":0,"x_max":0,"o":""},"ý":{"ha":34,"x_min":0,"x_max":0,"o":""},"þ":{"ha":34,"x_min":0,"x_max":0,"o":""},"ÿ":{"ha":34,"x_min":0,"x_max":0,"o":""},"ı":{"ha":34,"x_min":0,"x_max":0,"o":""},"ˆ":{"ha":34,"x_min":0,"x_max":0,"o":""},"ˇ":{"ha":34,"x_min":0,"x_max":0,"o":""},"ˉ":{"ha":34,"x_min":0,"x_max":0,"o":""},"˘":{"ha":34,"x_min":0,"x_max":0,"o":""},"˙":{"ha":34,"x_min":0,"x_max":0,"o":""},"˚":{"ha":34,"x_min":0,"x_max":0,"o":""},"˛":{"ha":34,"x_min":0,"x_max":0,"o":""},"˜":{"ha":34,"x_min":0,"x_max":0,"o":""},"˝":{"ha":34,"x_min":0,"x_max":0,"o":""},"–":{"ha":34,"x_min":0,"x_max":0,"o":""},"—":{"ha":34,"x_min":0,"x_max":0,"o":""},"‘":{"ha":34,"x_min":0,"x_max":0,"o":""},"’":{"ha":34,"x_min":0,"x_max":0,"o":""},"‚":{"ha":34,"x_min":0,"x_max":0,"o":""},"“":{"ha":34,"x_min":0,"x_max":0,"o":""},"”":{"ha":34,"x_min":0,"x_max":0,"o":""},"„":{"ha":34,"x_min":0,"x_max":0,"o":""},"†":{"ha":34,"x_min":0,"x_max":0,"o":""},"‡":{"ha":34,"x_min":0,"x_max":0,"o":""},"•":{"ha":34,"x_min":0,"x_max":0,"o":""},"…":{"ha":34,"x_min":0,"x_max":0,"o":""},"‹":{"ha":34,"x_min":0,"x_max":0,"o":""},"›":{"ha":34,"x_min":0,"x_max":0,"o":""},"⁄":{"ha":34,"x_min":0,"x_max":0,"o":""},"∕":{"ha":34,"x_min":0,"x_max":0,"o":""},"₣":{"ha":34,"x_min":0,"x_max":0,"o":""},"₤":{"ha":34,"x_min":0,"x_max":0,"o":""},"₧":{"ha":34,"x_min":0,"x_max":0,"o":""},"€":{"ha":34,"x_min":0,"x_max":0,"o":""},"№":{"ha":34,"x_min":0,"x_max":0,"o":""},"™":{"ha":34,"x_min":0,"x_max":0,"o":""},"∂":{"ha":34,"x_min":0,"x_max":0,"o":""},"∆":{"ha":34,"x_min":0,"x_max":0,"o":""},"∏":{"ha":34,"x_min":0,"x_max":0,"o":""},"∑":{"ha":34,"x_min":0,"x_max":0,"o":""},"−":{"ha":34,"x_min":0,"x_max":0,"o":""},"√":{"ha":34,"x_min":0,"x_max":0,"o":""},"∞":{"ha":34,"x_min":0,"x_max":0,"o":""},"∫":{"ha":34,"x_min":0,"x_max":0,"o":""},"≈":{"ha":34,"x_min":0,"x_max":0,"o":""},"≤":{"ha":34,"x_min":0,"x_max":0,"o":""},"≥":{"ha":34,"x_min":0,"x_max":0,"o":""}}}
